<?xml version="1.0" encoding="UTF-8" standalone="no"?>
<svg width="25px" height="25px" viewBox="0 0 25 25" version="1.1" xmlns="http://www.w3.org/2000/svg" xmlns:xlink="http://www.w3.org/1999/xlink" xmlns:sketch="http://www.bohemiancoding.com/sketch/ns">
    <!-- Generator: Sketch 3.4.4 (17249) - http://www.bohemiancoding.com/sketch -->
    <title>Page 1 Copy 3</title>
    <desc>Created with Sketch.</desc>
    <defs>
        <path id="path-1" d="M0,0 L25,0 L25,25 L0,25 L0,0 Z"></path>
    </defs>
    <g id="Product" stroke="none" stroke-width="1" fill="none" fill-rule="evenodd" sketch:type="MSPage">
        <g id="Contact" sketch:type="MSArtboardGroup" transform="translate(-1185.000000, -1678.000000)">
            <g id="footer" sketch:type="MSLayerGroup" transform="translate(175.000000, 1396.000000)">
                <g id="Page-1-Copy-3" transform="translate(1010.000000, 282.000000)">
                    <mask id="mask-2" sketch:name="Clip 2" fill="white">
                        <use xlink:href="#path-1"></use>
                    </mask>
                    <g id="Clip-2"></g>
                    <path d="M15.7312,12.4984 L13.6832,12.5004 L13.6812,20.0004 L10.8702,20.0004 L10.8702,12.5004 L8.9952,12.5004 L8.9952,9.9154 L10.8702,9.9144 L10.8672,8.3924 C10.8672,6.2824 11.4392,5.0004 13.9222,5.0004 L15.9902,5.0004 L15.9902,7.5854 L14.6972,7.5854 C13.7292,7.5854 13.6832,7.9464 13.6832,8.6204 L13.6792,9.9144 L16.0042,9.9144 L15.7312,12.4984 Z M12.5002,0.0004 C5.5972,0.0004 0.0002,5.5964 0.0002,12.5004 C0.0002,19.4034 5.5972,25.0004 12.5002,25.0004 C19.4032,25.0004 25.0002,19.4034 25.0002,12.5004 C25.0002,5.5954 19.4032,0.0004 12.5002,0.0004 L12.5002,0.0004 Z" id="Fill-1" fill="#FFFFFF" sketch:type="MSShapeGroup" mask="url(#mask-2)"></path>
                </g>
            </g>
        </g>
    </g>
</svg>