<svg xmlns="http://www.w3.org/2000/svg" xmlns:xlink="http://www.w3.org/1999/xlink" xmlns:sketch="http://www.bohemiancoding.com/sketch/ns" width="25" height="25" version="1.1" style=""><rect id="backgroundrect" width="100%" height="100%" x="0" y="0" fill="none" stroke="none"/>
    <!-- Generator: Sketch 3.4.4 (17249) - http://www.bohemiancoding.com/sketch -->
    <title>Page 1 Copy 4</title>
    <desc>Created with Sketch.</desc>
    <defs>
        <path id="path-1" d="M0,0 L25,0 L25,25 L0,25 L0,0 Z"/>
    </defs>
    
<g class="currentLayer" style=""><title>Layer 1</title><g id="Product" stroke="none" stroke-width="1" fill="#ffffff" fill-rule="evenodd" sketch:type="MSPage" class="selected" fill-opacity="1">
        <g id="Contact" sketch:type="MSArtboardGroup" fill="#ffffff" fill-opacity="1">
            <g id="footer" sketch:type="MSLayerGroup" fill="#ffffff" fill-opacity="1">
                <g id="Page-1-Copy-4" fill="#ffffff" fill-opacity="1">
                    <mask id="mask-2" sketch:name="Clip 2" fill="white" transform="translate(1088,282) translate(175,1396) translate(-1263,-1678) ">
                        <use xlink:href="#path-1" id="svg_1"/>
                    </mask>
                    <g id="Clip-2" fill="#ffffff" fill-opacity="1"/>
                    <path d="M17.148400000000038,12.5 C17.148400000000038,15.064000000000078 15.062400000000025,17.14799999999991 12.5003999999999,17.14799999999991 C9.937400000000025,17.14799999999991 7.851400000000012,15.064000000000078 7.851400000000012,12.5 C7.851400000000012,12.166999999999916 7.8904,12.032999999999902 7.956400000000031,11.719000000000051 L6.2503999999999,11.719000000000051 L6.2503999999999,18.75 L18.7503999999999,18.75 L18.7503999999999,11.719000000000051 L17.04340000000002,11.719000000000051 C17.110400000000027,12.032999999999902 17.148400000000038,12.166999999999916 17.148400000000038,12.5 L17.148400000000038,12.5 zM15.6253999999999,6.25 L18.7503999999999,6.25 L18.7503999999999,9.375 L15.6253999999999,9.375 L15.6253999999999,6.25 zM9.3753999999999,12.5 C9.3753999999999,14.226000000000113 10.774400000000014,15.625 12.5003999999999,15.625 C14.225400000000036,15.625 15.6253999999999,14.226000000000113 15.6253999999999,12.5 C15.6253999999999,10.773999999999887 14.225400000000036,9.375 12.5003999999999,9.375 C10.774400000000014,9.375 9.3753999999999,10.773999999999887 9.3753999999999,12.5 L9.3753999999999,12.5 zM20.312400000000025,19.748000000000047 C20.312400000000025,20.05899999999997 20.059400000000096,20.311999999999898 19.748399999999947,20.311999999999898 L5.251400000000103,20.311999999999898 C4.940399999999954,20.311999999999898 4.687400000000025,20.05899999999997 4.687400000000025,19.748000000000047 L4.687400000000025,5.251999999999953 C4.687400000000025,4.941000000000031 4.940399999999954,4.688000000000102 5.251400000000103,4.688000000000102 L19.748399999999947,4.688000000000102 C20.059400000000096,4.688000000000102 20.312400000000025,4.941000000000031 20.312400000000025,5.251999999999953 L20.312400000000025,19.748000000000047 zM12.5003999999999,0 C5.596399999999903,0 0.0003999999998995918,5.59699999999998 0.0003999999998995918,12.5 C0.0003999999998995918,19.40300000000002 5.596399999999903,25 12.5003999999999,25 C19.40339999999992,25 25.0003999999999,19.40300000000002 25.0003999999999,12.5 C25.0003999999999,5.595000000000027 19.40339999999992,0 12.5003999999999,0 L12.5003999999999,0 z" id="Fill-1" fill="#ffffff" sketch:type="MSShapeGroup" mask="url(#mask-2)" fill-opacity="1"/>
                </g>
            </g>
        </g>
    </g></g></svg>