<svg xmlns="http://www.w3.org/2000/svg" xmlns:xlink="http://www.w3.org/1999/xlink" xmlns:sketch="http://www.bohemiancoding.com/sketch/ns" width="25" height="25" version="1.1" style=""><rect id="backgroundrect" width="100%" height="100%" x="0" y="0" fill="none" stroke="none"/>
    <!-- Generator: Sketch 3.4.4 (17249) - http://www.bohemiancoding.com/sketch -->
    <title>Page 1 Copy</title>
    <desc>Created with Sketch.</desc>
    <defs>
        <path id="path-1" d="M0,0 L25,0 L25,25 L0,25 L0,0 Z"/>
    </defs>
    
<g class="currentLayer" style=""><title>Layer 1</title><g id="Product" stroke="none" stroke-width="1" fill="#ffffff" fill-rule="evenodd" sketch:type="MSPage" class="selected" fill-opacity="1">
        <g id="Contact" sketch:type="MSArtboardGroup" fill="#ffffff" fill-opacity="1">
            <g id="footer" sketch:type="MSLayerGroup" fill="#ffffff" fill-opacity="1">
                <g id="Page-1-Copy" fill="#ffffff" fill-opacity="1">
                    <mask id="mask-2" sketch:name="Clip 2" fill="white" transform="translate(1127,282) translate(175,1396) translate(-1302,-1678) ">
                        <use xlink:href="#path-1" id="svg_1"/>
                    </mask>
                    <g id="Clip-2" fill="#ffffff" fill-opacity="1"/>
                    <path d="M20.3125,18.55469999999991 L17.1875,18.55469999999991 L17.1875,11.792699999999968 C17.1875,10.999700000000075 16.96049999999991,10.445699999999988 15.987499999999955,10.445699999999988 C14.373499999999922,10.445699999999988 14.0625,11.792699999999968 14.0625,11.792699999999968 L14.0625,18.55469999999991 L10.9375,18.55469999999991 L10.9375,7.616700000000037 L14.0625,7.616700000000037 L14.0625,8.662700000000086 C14.509499999999889,8.320699999999988 15.625500000000102,7.61869999999999 17.1875,7.61869999999999 C18.201499999999896,7.61869999999999 20.3125,8.224699999999984 20.3125,11.887699999999995 L20.3125,18.55469999999991 zM7.90949999999998,6.946699999999964 C7.100500000000011,6.946699999999964 6.445500000000038,6.290700000000015 6.445500000000038,5.481700000000046 C6.445500000000038,4.671700000000101 7.101499999999987,4.015699999999924 7.90949999999998,4.015699999999924 C8.718499999999949,4.016699999999901 9.374499999999898,4.6737000000000535 9.374499999999898,5.481700000000046 C9.374499999999898,6.290700000000015 8.718499999999949,6.946699999999964 7.90949999999998,6.946699999999964 L7.90949999999998,6.946699999999964 zM9.374499999999898,18.55469999999991 L6.249499999999898,18.55469999999991 L6.249499999999898,7.616700000000037 L9.374499999999898,7.616700000000037 L9.374499999999898,18.55469999999991 zM12.500500000000102,-0.00029999999992469384 C5.5965000000001055,-0.00029999999992469384 0.0005000000001018634,5.596700000000055 0.0005000000001018634,12.499700000000075 C0.0005000000001018634,19.402700000000095 5.5965000000001055,24.999700000000075 12.500500000000102,24.999700000000075 C19.403499999999894,24.999700000000075 24.999499999999898,19.402700000000095 24.999499999999898,12.499700000000075 C24.999499999999898,5.595700000000079 19.403499999999894,-0.00029999999992469384 12.500500000000102,-0.00029999999992469384 L12.500500000000102,-0.00029999999992469384 z" id="Fill-1" fill="#ffffff" sketch:type="MSShapeGroup" mask="url(#mask-2)" fill-opacity="1"/>
                </g>
            </g>
        </g>
    </g></g></svg>