<svg xmlns="http://www.w3.org/2000/svg" xmlns:xlink="http://www.w3.org/1999/xlink" xmlns:sketch="http://www.bohemiancoding.com/sketch/ns" width="25" height="25" version="1.1" style=""><rect id="backgroundrect" width="100%" height="100%" x="0" y="0" fill="none" stroke="none"/>
    <!-- Generator: Sketch 3.4.4 (17249) - http://www.bohemiancoding.com/sketch -->
    <title>Page 1 Copy 2</title>
    <desc>Created with Sketch.</desc>
    <defs>
        <path id="path-1" d="M0,0 L25,0 L25,25 L0,25"/>
    </defs>
    
<g class="currentLayer" style=""><title>Layer 1</title><g id="Product" stroke="none" stroke-width="1" fill="#ffffff" fill-rule="evenodd" sketch:type="MSPage" class="selected" fill-opacity="1">
        <g id="Contact" sketch:type="MSArtboardGroup" fill="#ffffff" fill-opacity="1">
            <g id="footer" sketch:type="MSLayerGroup" fill="#ffffff" fill-opacity="1">
                <g id="Page-1-Copy-2" fill="#ffffff" fill-opacity="1">
                    <mask id="mask-2" sketch:name="Clip 2" fill="white" transform="translate(-0.04878048598766327,0) translate(1049,282) translate(175,1396) translate(-1224,-1678) ">
                        <use xlink:href="#path-1" id="svg_1"/>
                    </mask>
                    <g id="Clip-2" fill="#ffffff" fill-opacity="1"/>
                    <path d="M18.670019514012438,9.69380000000001 C18.676019514012296,9.826800000000048 18.67901951401223,9.959800000000087 18.67901951401223,10.091799999999921 C18.67901951401223,14.159799999999905 15.584019514012425,18.848799999999983 9.923019514012367,18.848799999999983 C8.186019514012287,18.848799999999983 6.568019514012349,18.338799999999992 5.206019514012269,17.465799999999945 C5.447019514012254,17.493799999999965 5.692019514012372,17.50980000000004 5.94001951401242,17.50980000000004 C7.382019514012427,17.50980000000004 8.709019514012425,17.016800000000103 9.762019514012309,16.191800000000057 C8.415019514012329,16.166799999999967 7.2790195140123615,15.276800000000094 6.887019514012309,14.054799999999886 C7.076019514012387,14.090799999999945 7.267019514012418,14.10979999999995 7.467019514012236,14.10979999999995 C7.748019514012412,14.10979999999995 8.020019514012347,14.07179999999994 8.278019514012385,14.001800000000003 C6.870019514012256,13.718800000000101 5.809019514012334,12.47479999999996 5.809019514012334,10.98479999999995 L5.809019514012334,10.945799999999963 C6.225019514012274,11.176799999999957 6.6980195140122305,11.313799999999901 7.20301951401234,11.330799999999954 C6.378019514012294,10.779800000000023 5.834019514012425,9.837800000000016 5.834019514012425,8.770800000000008 C5.834019514012425,8.205799999999954 5.986019514012241,7.677799999999934 6.250019514012365,7.223799999999983 C7.767019514012418,9.085800000000063 10.036019514012423,10.310799999999972 12.59301951401244,10.438799999999901 C12.540019514012329,10.213799999999992 12.514019514012261,9.977799999999888 12.514019514012261,9.737800000000107 C12.514019514012261,8.038800000000037 13.892019514012418,6.660800000000108 15.592019514012236,6.660800000000108 C16.47601951401225,6.660800000000108 17.276019514012432,7.034799999999905 17.839019514012307,7.632800000000088 C18.54001951401233,7.493799999999965 19.20001951401241,7.237800000000107 19.793019514012258,6.8858000000000175 C19.564019514012443,7.604800000000068 19.076019514012387,8.207799999999907 18.44001951401242,8.588799999999992 C19.062019514012263,8.5157999999999 19.656019514012314,8.348799999999983 20.20801951401245,8.104800000000068 C19.795019514012438,8.720800000000054 19.2720195140123,9.26279999999997 18.670019514012438,9.69380000000001 M12.451019514012387,-0.00019999999994979592 C5.548019514012367,-0.00019999999994979592 -0.048980485987613065,5.59680000000003 -0.048980485987613065,12.49980000000005 C-0.048980485987613065,19.40280000000007 5.548019514012367,24.99980000000005 12.451019514012387,24.99980000000005 C19.354019514012407,24.99980000000005 24.951019514012387,19.40280000000007 24.951019514012387,12.49980000000005 C24.951019514012387,5.595800000000054 19.354019514012407,-0.00019999999994979592 12.451019514012387,-0.00019999999994979592 " id="Fill-1" fill="#ffffff" sketch:type="MSShapeGroup" mask="url(#mask-2)" fill-opacity="1"/>
                </g>
            </g>
        </g>
    </g></g></svg>